<svg xmlns="http://www.w3.org/2000/svg" width="48" height="35" fill="none"><path fill="#F16D7F" d="M42.393 8.536a4.6 4.6 0 0 0-4.646 4.533 4.456 4.456 0 0 0 1.56 3.365l-5.86 2.055-8.339-9.683a4.536 4.536 0 0 0 3.1-4.256 4.646 4.646 0 0 0-9.29 0 4.544 4.544 0 0 0 3.045 4.242l-8.352 9.7-5.858-2.055a4.457 4.457 0 0 0 1.558-3.365 4.647 4.647 0 1 0-5.745 4.393v12.29c.007.083.024.163.05.242-.033.126-.05.257-.05.388 0 4.412 17.919 4.542 19.962 4.542 2.043 0 19.962-.13 19.962-4.542 0-.131-.018-.262-.05-.388a.899.899 0 0 0 .05-.241V17.465a4.516 4.516 0 0 0-1.093-8.926l-.004-.003ZM21.174 4.552A2.386 2.386 0 1 1 23.56 6.88a2.362 2.362 0 0 1-2.386-2.328Zm-7.59 16.276a1.155 1.155 0 0 0 1.246-.33l8.7-10.1 8.7 10.1a1.155 1.155 0 0 0 1.245.33l7.758-2.724v9.937c-4.885-2.122-16.109-2.2-17.7-2.2-1.591 0-12.819.079-17.7 2.2v-9.937l7.751 2.724Zm9.943 11.889c-8.7 0-14.249-1.011-16.557-1.862a4.63 4.63 0 0 1-1-.474c.722-.521 3.061-1.232 6.966-1.732a93.168 93.168 0 0 1 21.175 0c3.9.5 6.245 1.21 6.965 1.732-.31.198-.645.358-.995.474-2.302.849-7.846 1.862-16.554 1.862ZM2.28 13.069a2.385 2.385 0 1 1 2.386 2.33 2.361 2.361 0 0 1-2.386-2.33Zm40.113 2.33a2.328 2.328 0 1 1 2.386-2.33 2.362 2.362 0 0 1-2.386 2.329Z"/></svg>