<svg xmlns="http://www.w3.org/2000/svg" width="40" height="40" fill="none"><path fill="#F16D7F" d="m19.994 37.024-3.471 2.9-2.288-3.92-4.24 1.512-.822-4.48-4.493-.045.732-4.5-4.208-1.6 2.21-3.966L0 19.96l3.412-2.967-2.21-3.965 4.209-1.6-.733-4.495 4.494-.044.822-4.48 4.24 1.51L16.522 0l3.47 2.9L23.465 0l2.289 3.92 4.24-1.511.82 4.48 4.495.046-.732 4.495 4.208 1.6-2.21 3.966 3.412 2.965-3.412 2.967 2.209 3.966-4.21 1.6.734 4.494-4.495.045-.821 4.48-4.238-1.51-2.29 3.92-3.47-2.9ZM21.2 35.54l1.76 1.471 1.162-1.99.792-1.356 1.468.523 2.15.768.418-2.273.285-1.555 1.56-.016 2.283-.021-.372-2.282-.254-1.56 1.459-.554 2.134-.813-1.12-2.01-.766-1.375 1.183-1.027 1.734-1.51-1.733-1.5-1.183-1.03.766-1.375 1.12-2.011-2.133-.811-1.46-.553.256-1.56.372-2.281-2.282-.023-1.56-.016-.285-1.554-.416-2.273-2.152.767-1.468.523-.793-1.357-1.162-1.99-1.762 1.47-1.205 1.006-1.205-1.005-1.761-1.471-1.161 1.989-.792 1.357-1.47-.523-2.15-.768-.417 2.274-.285 1.554-1.56.016-2.281.022.372 2.282.254 1.558-1.46.555-2.134.81 1.12 2.012.767 1.375-1.183 1.029-1.734 1.508 1.733 1.507 1.183 1.029-.766 1.375-1.121 2.01 2.133.81 1.46.555-.255 1.559-.371 2.284 2.28.023 1.56.016.286 1.555.417 2.272 2.152-.767 1.469-.523.792 1.357 1.162 1.99 1.76-1.471 1.206-1.005 1.204.998Zm.118-12.521c0-2.927 1.565-4.555 3.459-4.555 2.006 0 3.3 1.563 3.3 4.33 0 3.059-1.585 4.577-3.415 4.577-1.78 0-3.324-1.45-3.344-4.352Zm1.52-.088c-.022 1.85.683 3.258 1.873 3.258 1.277 0 1.85-1.385 1.85-3.3 0-1.765-.507-3.237-1.85-3.237-1.211-.004-1.872 1.45-1.872 3.278Zm-7.644 4.4 8.415-14.719h1.233l-8.415 14.719h-1.233ZM11.979 16.99c0-2.9 1.563-4.532 3.458-4.532 2 0 3.326 1.564 3.326 4.332 0 3.058-1.586 4.575-3.436 4.575-1.783 0-3.327-1.45-3.348-4.374v-.001Zm1.542-.066c-.044 1.85.64 3.257 1.85 3.259 1.277 0 1.85-1.384 1.85-3.3 0-1.766-.507-3.238-1.85-3.238-1.21-.003-1.85 1.447-1.85 3.28v-.001Z"/></svg>