<svg xmlns="http://www.w3.org/2000/svg" width="46" height="32" fill="none"><path fill="#F16D7F" d="M30.287 27.243H14.81a5.562 5.562 0 0 1-10.987 0H1.886a1.869 1.869 0 0 1-1.857-1.876V1.877A1.869 1.869 0 0 1 1.886 0h25.55a1.868 1.868 0 0 1 1.857 1.877v1.905h7.12a.9.9 0 0 1 .239.031c2.3.2 3.457 1.4 4.677 3.462l3.559 6.094c.085.145.13.31.13.477v12.458a.934.934 0 0 1-.93.938h-2.813a5.562 5.562 0 0 1-10.987 0h-.001Zm1.778-.939a3.715 3.715 0 1 0 3.716-3.755 3.74 3.74 0 0 0-3.716 3.755Zm-26.464 0a3.715 3.715 0 1 0 3.716-3.755A3.74 3.74 0 0 0 5.6 26.304Zm35.672-.938h1.886v-5.618h-2.736a.932.932 0 0 1-.93-.938v-1.847c0-.72.276-1.414.77-1.938h-6.378a.927.927 0 0 1-.23-.03 2.824 2.824 0 0 1-2.573-2.823v-4.7a.936.936 0 0 1 .929-.939h6.483a3.354 3.354 0 0 0-2.578-.88h-6.623v19.709h.994a5.561 5.561 0 0 1 10.987 0l-.001.004Zm-26.464 0h12.627V1.876H1.886v23.49h1.937a5.562 5.562 0 0 1 10.987 0h-.001Zm26.542-8.4v.909h1.808v-1.847h-.88a.934.934 0 0 0-.927.935l-.001.003Zm-8.413-4.792a.955.955 0 0 0 .947.958c.064 0 .127.006.19.02H42.6l-2.766-4.736h-6.9l.004 3.758Zm.093 14.132a2.766 2.766 0 0 1 2.749-2.777.938.938 0 0 1 0 1.876.9.9 0 1 0 .892.9.928.928 0 0 1 1.857 0 2.75 2.75 0 1 1-5.5 0h.002Zm-26.464 0a2.766 2.766 0 0 1 2.749-2.777.938.938 0 0 1 0 1.876.9.9 0 1 0 .892.9.929.929 0 0 1 1.857 0 2.75 2.75 0 1 1-5.5 0h.002ZM4.709 5.66a.938.938 0 1 1 0-1.876h19.9a.938.938 0 1 1 0 1.876h-19.9Z"/></svg>